<?xml version="1.0" encoding="UTF-8"?><!DOCTYPE svg PUBLIC "-//W3C//DTD SVG 1.1//EN" "http://www.w3.org/Graphics/SVG/1.1/DTD/svg11.dtd"><svg xmlns="http://www.w3.org/2000/svg" xmlns:xlink="http://www.w3.org/1999/xlink"><symbol id="arrow" viewBox="0 -960 960 960"><path d="m480-160-42-43 247-247H160v-60h525L438-757l42-43 320 320-320 320Z"/></symbol><symbol id="calendar" viewBox="0 0 32 32"><g fill="#FFF" fill-rule="evenodd"><path d="M8 4a3 3 0 0 0-3 3v18a3 3 0 0 0 3 3h16a3 3 0 0 0 3-3V7a3 3 0 0 0-3-3H8Zm0 2h16a1 1 0 0 1 1 1v18a1 1 0 0 1-1 1H8a1 1 0 0 1-1-1V7a1 1 0 0 1 1-1Z"/><rect x="10" y="2" width="2.5" height="6" rx="1.25"/><rect x="19.5" y="2" width="2.5" height="6" rx="1.25"/><rect x="7" y="10" width="18" height="3" rx="1.5"/><rect x="9" y="15" width="4" height="4" rx="1"/><rect x="14" y="15" width="4" height="4" rx="1"/><rect x="19" y="15" width="4" height="4" rx="1"/><rect x="9" y="20" width="4" height="4" rx="1"/><rect x="14" y="20" width="4" height="4" rx="1"/><rect x="19" y="20" width="4" height="4" rx="1"/></g></symbol><symbol id="camera" viewBox="0 0 24 24"><g fill="none"><g stroke="#000" stroke-width="2" stroke-linecap="round" stroke-linejoin="round"><path d="M3 9a2 2 0 0 1 2-2h1.5a2 2 0 0 0 1.6-.8l1.05-1.4a2 2 0 0 1 1.6-.8h2.5a2 2 0 0 1 1.6.8l1.05 1.4a2 2 0 0 0 1.6.8H19a2 2 0 0 1 2 2v9a2 2 0 0 1-2 2H5a2 2 0 0 1-2-2V9Z"/><circle cx="12" cy="13" r="4"/></g></g></symbol><symbol id="facebook" viewBox="0 0 32 32"><path d="M0 16C0 7.163 7.163 0 16 0s16 7.163 16 16-7.163 16-16 16S0 24.837 0 16Zm17.668 9.408v-8.705h2.403l.318-3h-2.721l.004-1.501c0-.783.074-1.202 1.198-1.202h1.502V8H17.97c-2.887 0-3.903 1.455-3.903 3.902v1.801h-1.8v3h1.8v8.705h3.602Z" fill="#FFF" fill-rule="evenodd"/></symbol><symbol id="facebook2" viewBox="0 0 24 24"><g fill="none"><path fill-rule="evenodd" clip-rule="evenodd" d="M2 6a4 4 0 0 1 4-4h12a4 4 0 0 1 4 4v12a4 4 0 0 1-4 4H6a4 4 0 0 1-4-4V6Zm4-2a2 2 0 0 0-2 2v12a2 2 0 0 0 2 2h6v-7h-1a1 1 0 1 1 0-2h1V9.5A3.5 3.5 0 0 1 15.5 6h.6a1 1 0 1 1 0 2h-.6A1.5 1.5 0 0 0 14 9.5V11h2.1a1 1 0 1 1 0 2H14v7h4a2 2 0 0 0 2-2V6a2 2 0 0 0-2-2H6Z" fill="#000"/></g></symbol><symbol id="instagram" viewBox="0 0 32 32"><path d="M16 0c8.837 0 16 7.163 16 16s-7.163 16-16 16S0 24.837 0 16 7.163 0 16 0Zm1.021 6.668h-2.043a68.25 68.25 0 0 0-2.038.023l-.25.009c-.168.006-.34.014-.538.023-.993.046-1.672.203-2.265.434a4.57 4.57 0 0 0-1.653 1.076 4.582 4.582 0 0 0-1.078 1.653c-.231.594-.389 1.272-.433 2.265-.038.843-.052 1.2-.055 2.826v2.046c.003 1.625.017 1.982.055 2.824.046.994.203 1.672.434 2.266a4.573 4.573 0 0 0 1.076 1.653 4.57 4.57 0 0 0 1.653 1.077c.594.231 1.272.388 2.266.434.88.04 1.23.053 3.054.056h1.846a60.15 60.15 0 0 0 2.179-.03l.195-.007.421-.02c.994-.045 1.673-.202 2.267-.433a4.567 4.567 0 0 0 1.652-1.077c.52-.519.838-1.04 1.077-1.653.23-.594.387-1.272.434-2.265.01-.23.019-.424.026-.617l.006-.194c.016-.492.022-1.054.024-2.244v-1.832a69.048 69.048 0 0 0-.024-1.999l-.006-.194a73.716 73.716 0 0 0-.026-.616c-.047-.994-.204-1.672-.434-2.266a4.58 4.58 0 0 0-1.077-1.653 4.562 4.562 0 0 0-1.653-1.076c-.595-.231-1.273-.388-2.267-.434-.842-.038-1.199-.052-2.825-.055Zm-1.858 1.678 1.375.003h.467c1.032.002 1.538.008 1.993.022l.246.009a74 74 0 0 1 .528.022c.91.042 1.404.194 1.733.322.436.169.746.371 1.073.698.326.326.529.638.698 1.073.128.329.28.823.322 1.733l.025.606.007.19c.012.417.018.883.02 1.76l.002.435v1.558l-.001.435a46.556 46.556 0 0 1-.053 2.556c-.042.91-.194 1.404-.322 1.733-.17.435-.372.745-.698 1.072a2.886 2.886 0 0 1-1.073.698c-.329.128-.823.28-1.733.321-.825.038-1.166.05-2.727.054h-2.088c-1.561-.003-1.902-.016-2.728-.054-.91-.042-1.404-.194-1.733-.321a2.89 2.89 0 0 1-1.073-.698 2.893 2.893 0 0 1-.699-1.073c-.127-.329-.28-.823-.321-1.733-.04-.87-.051-1.202-.053-2.992v-1.559c.001-1.225.007-1.766.023-2.265l.008-.23a78.4 78.4 0 0 1 .022-.496c.041-.91.194-1.404.321-1.733.17-.435.372-.746.699-1.073a2.897 2.897 0 0 1 1.073-.698c.33-.129.823-.28 1.733-.322l.517-.022.24-.009a72.29 72.29 0 0 1 2.177-.022Zm.818 2.838a4.793 4.793 0 1 0 0 9.587 4.793 4.793 0 0 0 0-9.587ZM16 12.938a3.062 3.062 0 1 1 0 6.124 3.062 3.062 0 0 1 0-6.125Zm4.963-3.063a1.12 1.12 0 1 0 0 2.24 1.12 1.12 0 0 0 0-2.24Z" fill="#FFF" fill-rule="evenodd"/></symbol><symbol id="instagram2" viewBox="0 0 24 24"><g fill="none"><g fill="#0F0F0F"><path fill-rule="evenodd" clip-rule="evenodd" d="M12 18a6 6 0 1 0 0-12 6 6 0 0 0 0 12Zm0-2a4 4 0 1 0 0-8 4 4 0 0 0 0 8Z"/><path d="M18 5a1 1 0 1 0 0 2 1 1 0 0 0 0-2Z"/><path fill-rule="evenodd" clip-rule="evenodd" d="M1.654 4.276C1 5.56 1 7.24 1 10.6v2.8c0 3.36 0 5.04.654 6.324a6 6 0 0 0 2.622 2.622C5.56 23 7.24 23 10.6 23h2.8c3.36 0 5.04 0 6.324-.654a6 6 0 0 0 2.622-2.622C23 18.44 23 16.76 23 13.4v-2.8c0-3.36 0-5.04-.654-6.324a6 6 0 0 0-2.622-2.622C18.44 1 16.76 1 13.4 1h-2.8c-3.36 0-5.04 0-6.324.654a6 6 0 0 0-2.622 2.622ZM13.4 3h-2.8c-1.713 0-2.878.002-3.778.075-.877.072-1.325.202-1.638.361a4 4 0 0 0-1.748 1.748c-.16.313-.29.761-.36 1.638C3.001 7.722 3 8.887 3 10.6v2.8c0 1.713.002 2.878.075 3.778.072.877.202 1.325.361 1.638a4 4 0 0 0 1.748 1.748c.313.16.761.29 1.638.36.9.074 2.065.076 3.778.076h2.8c1.713 0 2.878-.002 3.778-.075.877-.072 1.325-.202 1.638-.361a4 4 0 0 0 1.748-1.748c.16-.313.29-.761.36-1.638.074-.9.076-2.065.076-3.778v-2.8c0-1.713-.002-2.878-.075-3.778-.072-.877-.202-1.325-.361-1.638a4 4 0 0 0-1.748-1.748c-.313-.16-.761-.29-1.638-.36C16.278 3.001 15.113 3 13.4 3Z"/></g></g></symbol><symbol id="menu" viewBox="0 0 24 18"><path d="M1 0h22a1 1 0 0 1 0 2H1a1 1 0 0 1 0-2Zm0 8h22a1 1 0 0 1 0 2H1a1 1 0 0 1 0-2Zm0 8h22a1 1 0 0 1 0 2H1a1 1 0 0 1 0-2Z" fill="#FFF" fill-rule="evenodd"/></symbol><symbol id="minus" viewBox="0 0 24 24"><g fill="none" fill-rule="evenodd"><path d="M0 0h24v24H0z"/><path stroke="#FFF" stroke-width="2" stroke-linecap="round" stroke-linejoin="round" d="M5 12h14"/></g></symbol><symbol id="plus" viewBox="0 0 24 24"><g fill="none" fill-rule="evenodd"><path d="M0 0h24v24H0z"/><path stroke="#FFF" stroke-width="2" stroke-linecap="round" stroke-linejoin="round" d="M12 5v14M5 12h14"/></g></symbol><symbol id="rozpis" viewBox="0 0 50 50"><path d="m10.844 5-.125.031-2 .594-.5.125-.156.5-1.438 4.031-5.906 1.75L0 12.25v13.563l.813.156 1.187.25c-.11.16-.227.328-.313.5C1.234 27.625 1 28.762 1 30s.234 2.375.688 3.281C2.14 34.188 2.905 35 4 35h3c1.094 0 1.86-.813 2.313-1.719.21-.426.355-.894.468-1.406l4.219.938c-.004.062 0 .12 0 .187 0 1.516.3 2.883.844 3.969C15.387 38.055 16.27 39 17.5 39h3.813c-.133.773-.282 1.813-.282 1.813-.054.269.004.55.164.777.16.222.407.37.68.41l25 3a1 1 0 0 0 1.063-.688S50 38.48 50 33.813c0-2.335-.543-3.976-1.125-5.03-.582-1.055-1.281-1.595-1.281-1.595A.985.985 0 0 0 47 27h-2.063c.036-.16.063-.328.063-.5 0-1.367-1.133-2.5-2.5-2.5a2.518 2.518 0 0 0-2.5 2.5c0 .172.027.34.063.5H39v-4c0-.55-.45-1-1-1h-8.187A1 1 0 0 0 29 23v4h-1.063c.036-.16.063-.328.063-.5 0-1.367-1.133-2.5-2.5-2.5a2.518 2.518 0 0 0-2.5 2.5c0 .172.027.34.063.5h-1.25a1 1 0 0 0-.688 1.469S22 30.03 22 32.906c0 1.18-.184 2.688-.375 4.094h-1.5c.008-.012.023-.02.031-.031C20.7 35.883 21 34.516 21 33s-.3-2.883-.844-3.969C19.613 27.945 18.73 27 17.5 27c-.574 0-1.078.2-1.5.531V13.25c0-.672.5-1.203 1.156-1.25h.25c1.157 0 2.117.809 2.344 1.938l.594 4.187a.998.998 0 0 0 1 .875H35.78l2.907 1.156A2.093 2.093 0 0 1 40 22.094c-.004.36.184.695.496.879.313.18.695.18 1.008 0 .312-.184.5-.52.496-.88 0-1.66-1.02-3.163-2.563-3.78l-2.5-1.032-.5-3.718v-.032A4.18 4.18 0 0 0 36 12.25V5ZM12 7h22v3.406c-.531-.242-1.105-.406-1.719-.406H17.22a1.044 1.044 0 0 0-.188.031C15.348 10.148 14 11.54 14 13.25V26h-2Zm-2 .344v18.468l-8-1.625V13.75l5.688-1.719.5-.156.156-.469 1.406-4ZM21.094 12H32.28c.692 0 1.309.313 1.719.813v.03c.223.278.402.595.469.97v.03L34.875 17H22.187l-.437-3.344v-.031A4.32 4.32 0 0 0 21.094 12ZM31 24h6v3h-6Zm-5.5 2c.29 0 .5.21.5.5 0 .29-.21.5-.5.5-.29 0-.5-.21-.5-.5 0-.29.21-.5.5-.5Zm17 0c.29 0 .5.21.5.5 0 .29-.21.5-.5.5-.29 0-.5-.21-.5-.5 0-.29.21-.5.5-.5ZM4 27c.012 0 .262.082.531.625.27.543.469 1.406.469 2.375 0 .969-.2 1.832-.469 2.375-.27.543-.52.625-.531.625-.012 0-.262-.082-.531-.625C3.199 31.832 3 30.969 3 30c0-.969.2-1.832.469-2.375.27-.543.52-.625.531-.625Zm2.469.094 4.343.875.094.031H14v2.75l-7.031-1.563a7.063 7.063 0 0 0-.5-2.093ZM17.5 29c.148 0 .512.184.875.906.363.723.625 1.848.625 3.094 0 1.246-.262 2.371-.625 3.094-.363.722-.727.906-.875.906-.148 0-.512-.184-.875-.906C16.262 35.37 16 34.246 16 33c0-1.246.262-2.371.625-3.094.363-.722.727-.906.875-.906Zm5.938 0h23.125c.09.07.23.152.562.75.418.754.875 2.035.875 4.063 0 3.597-1.371 8.007-1.719 9.093l-23.125-2.781c.25-1.305.844-4.516.844-7.219 0-1.64-.285-2.972-.563-3.906ZM6.905 31.219l.938.218a4.175 4.175 0 0 1-.313.938c-.27.543-.52.625-.531.625h-.563c.231-.535.38-1.133.47-1.781Z"/></symbol><symbol id="webcam" viewBox="0 0 32 32"><g fill="#fff" stroke="#fff"><g id="SVGRepo_iconCarrier"><style>.st0{fill:none;stroke:#000;stroke-width:2;stroke-linecap:round;stroke-linejoin:round;stroke-miterlimit:10}</style><circle class="st0" cx="16" cy="14" r="11"/><circle class="st0" cx="16" cy="14" r="5"/><circle class="st0" cx="16" cy="14" r="1"/><path class="st0" d="m21.8 23.3 2.4 2.2c1.4 1.2.5 3.5-1.3 3.5H9.2c-1.8 0-2.7-2.2-1.3-3.5l2.4-2.2M22 9h0"/></g></g></symbol><symbol id="youtube" viewBox="0 0 32 32"><path d="M16 0c8.837 0 16 7.163 16 16s-7.163 16-16 16S0 24.837 0 16 7.163 0 16 0ZM7.557 8.89c1.693-.44 8.436-.44 8.436-.44s6.757 0 8.45.467c.92.24 1.652.973 1.892 1.892.466 1.693.453 5.211.453 5.211s0 3.505-.453 5.184a2.681 2.681 0 0 1-1.893 1.906c-1.692.44-8.449.44-8.449.44s-6.73 0-8.436-.454a2.746 2.746 0 0 1-1.905-1.905c-.44-1.666-.44-5.184-.44-5.184s0-3.505.44-5.198c.253-.92 1-1.666 1.905-1.919Zm11.901 7.117-5.61-3.239v6.464l5.61-3.225Z" fill="#FFF" fill-rule="evenodd"/></symbol></svg>