<?xml version="1.0" encoding="UTF-8"?>
<svg width="32px" height="32px" viewBox="0 0 32 32" version="1.1" xmlns="http://www.w3.org/2000/svg" xmlns:xlink="http://www.w3.org/1999/xlink">
    <title>calendar</title>
    <g id="icon-calendar" stroke="none" stroke-width="1" fill="none" fill-rule="evenodd">
        <g id="calendar" fill="#FFFFFF">
            <!-- Outer rounded square -->
            <path d="M8,4 C6.343,4 5,5.343 5,7 L5,25 C5,26.657 6.343,28 8,28 L24,28 C25.657,28 27,26.657 27,25 L27,7 C27,5.343 25.657,4 24,4 L8,4 Z M8,6 L24,6 C24.552,6 25,6.448 25,7 L25,25 C25,25.552 24.552,26 24,26 L8,26 C7.448,26 7,25.552 7,25 L7,7 C7,6.448 7.448,6 8,6 Z"/>
            <!-- Top rings -->
            <rect x="10" y="2" width="2.5" height="6" rx="1.25"/>
            <rect x="19.5" y="2" width="2.5" height="6" rx="1.25"/>
            <!-- Top bar -->
            <rect x="7" y="10" width="18" height="3" rx="1.5"/>
            <!-- Date squares -->
            <rect x="9" y="15" width="4" height="4" rx="1"/>
            <rect x="14" y="15" width="4" height="4" rx="1"/>
            <rect x="19" y="15" width="4" height="4" rx="1"/>
            <rect x="9" y="20" width="4" height="4" rx="1"/>
            <rect x="14" y="20" width="4" height="4" rx="1"/>
            <rect x="19" y="20" width="4" height="4" rx="1"/>
        </g>
    </g>
</svg>
