<?xml version="1.0" encoding="UTF-8"?>
<svg width="32px" height="32px" viewBox="0 0 32 32" version="1.1" xmlns="http://www.w3.org/2000/svg" xmlns:xlink="http://www.w3.org/1999/xlink">
    <title>facebook</title>
    <g id="Design" stroke="none" stroke-width="1" fill="none" fill-rule="evenodd">
        <g id="Mobil---menu" transform="translate(-24, -703)" fill="#FFFFFF">
            <g id="facebook" transform="translate(24, 703)">
                <path d="M0,16 C0,7.16346667 7.16346667,0 16,0 C24.8365333,0 32,7.16346667 32,16 C32,24.8365333 24.8365333,32 16,32 C7.16346667,32 0,24.8365333 0,16 Z M17.6677333,25.4076667 L17.6677333,16.7028 L20.0706,16.7028 L20.3890667,13.7030667 L17.6677333,13.7030667 L17.6718,12.2016667 C17.6718,11.4192667 17.7461333,11.0000667 18.8698667,11.0000667 L20.3720667,11.0000667 L20.3720667,8 L17.9688,8 C15.0820667,8 14.0660667,9.4552 14.0660667,11.9024 L14.0660667,13.7034 L12.2666667,13.7034 L12.2666667,16.7031333 L14.0660667,16.7031333 L14.0660667,25.4076667 L17.6677333,25.4076667 Z" id="Shape"></path>
            </g>
        </g>
    </g>
</svg>