<?xml version="1.0" encoding="UTF-8"?>
<svg width="32px" height="32px" viewBox="0 0 32 32" version="1.1" xmlns="http://www.w3.org/2000/svg" xmlns:xlink="http://www.w3.org/1999/xlink">
    <title>instagram</title>
    <g id="Symbols" stroke="none" stroke-width="1" fill="none" fill-rule="evenodd">
        <g id="navbar" transform="translate(-1828, -76)" fill="#FFFFFF">
            <path d="M1844,76 C1852.83656,76 1860,83.163444 1860,92 C1860,100.836556 1852.83656,108 1844,108 C1835.16344,108 1828,100.836556 1828,92 C1828,83.163444 1835.16344,76 1844,76 Z M1845.02123,82.6675379 L1842.97765,82.6675379 C1841.92574,82.6697049 1841.40485,82.6762616 1840.93998,82.6910054 L1840.68911,82.6998823 C1840.52176,82.7063719 1840.3504,82.7140355 1840.15218,82.7230556 C1839.15857,82.7685556 1838.48034,82.9258611 1837.8869,83.1566667 C1837.27303,83.3950556 1836.7523,83.7139444 1836.23352,84.2329167 C1835.71435,84.7516944 1835.39545,85.2724167 1835.15628,85.8860833 C1834.92489,86.4797222 1834.76739,87.1581389 1834.72267,88.1513611 C1834.68515,88.9937543 1834.67103,89.3512525 1834.66757,90.9769482 L1834.66755,93.0229774 C1834.67094,94.6484162 1834.68488,95.0050791 1834.72306,95.8474722 C1834.76875,96.8410833 1834.92606,97.5193056 1835.15667,98.11275 C1835.39526,98.7266111 1835.71415,99.2473333 1836.23313,99.7661111 C1836.75172,100.285278 1837.27244,100.604944 1837.88592,100.843333 C1838.47976,101.074139 1839.15818,101.231444 1840.15159,101.276944 C1841.03231,101.317022 1841.38272,101.33032 1843.20645,101.332855 L1845.0522,101.3324 C1846.21352,101.329893 1846.72037,101.321888 1847.23097,101.303127 L1847.42556,101.295509 C1847.55715,101.290075 1847.69426,101.283915 1847.84743,101.276944 C1848.84104,101.231444 1849.52004,101.074139 1850.11388,100.843333 C1850.72754,100.604944 1851.24749,100.285278 1851.76611,99.7661111 C1852.28528,99.2473333 1852.60417,98.7266111 1852.84333,98.1129444 C1853.07278,97.5193056 1853.23028,96.8408889 1853.27694,95.8476667 C1853.28726,95.6179231 1853.29583,95.4242978 1853.30289,95.2312047 L1853.30946,95.0369709 C1853.32469,94.5452397 1853.33112,93.9826961 1853.33283,92.7933048 L1853.33239,90.9611664 C1853.33015,89.9371405 1853.32361,89.419212 1853.30946,88.9624269 L1853.30289,88.7681227 C1853.29583,88.5749658 1853.28726,88.3812991 1853.27694,88.1515556 C1853.23028,87.1579444 1853.07278,86.4797222 1852.84333,85.8862778 C1852.60417,85.2724167 1852.28528,84.7516944 1851.76611,84.2329167 C1851.24691,83.71375 1850.72774,83.3948611 1850.11329,83.1566667 C1849.51829,82.9258611 1848.83968,82.7685556 1847.84607,82.7230556 C1847.00365,82.6847202 1846.64712,82.670887 1845.02123,82.6675379 Z M1843.16338,84.3462778 L1844.5381,84.3487821 L1845.00539,84.3493439 C1846.03712,84.3511985 1846.54344,84.3569718 1846.99791,84.371068 L1847.24352,84.3796087 C1847.40762,84.385888 1847.57625,84.3933738 1847.77218,84.4022778 C1848.68218,84.4438889 1849.17607,84.5959444 1849.50507,84.7236944 C1849.94063,84.8928611 1850.25116,85.0950833 1850.57763,85.42175 C1850.90429,85.7484167 1851.10652,86.0595278 1851.27607,86.4950833 C1851.40386,86.8236944 1851.55611,87.3175833 1851.59753,88.2275833 C1851.60785,88.4546346 1851.6163,88.6450291 1851.62321,88.8342049 L1851.62961,89.0242869 C1851.64239,89.4409388 1851.64838,89.9073236 1851.65071,90.7838926 L1851.65155,91.218901 L1851.65155,92.7768212 L1851.65071,93.2118296 C1851.64694,94.6278258 1851.63365,94.9734594 1851.59753,95.7681389 C1851.55592,96.6781389 1851.40386,97.1720278 1851.27607,97.5006389 C1851.10691,97.9361944 1850.90429,98.2463333 1850.57763,98.5728056 C1850.25096,98.8994722 1849.94082,99.1016944 1849.50507,99.2708611 C1849.17646,99.3991944 1848.68218,99.5508611 1847.77218,99.5924722 C1846.94651,99.6300014 1846.60558,99.6428838 1845.04468,99.646057 L1842.95664,99.646057 C1841.39564,99.6428838 1841.05485,99.6300014 1840.22918,99.5924722 C1839.31918,99.5504722 1838.82529,99.3984167 1838.49609,99.2706667 C1838.06054,99.1015 1837.74942,98.8992778 1837.42275,98.5726111 C1837.09608,98.2459444 1836.89386,97.9356111 1836.7243,97.4998611 C1836.59655,97.17125 1836.4443,96.6773611 1836.40288,95.7673611 C1836.36332,94.8969979 1836.35175,94.565286 1836.34961,92.7749666 L1836.34961,91.2161463 C1836.35108,89.9913831 1836.35695,89.4498968 1836.37319,88.9512571 L1836.38144,88.7218261 C1836.38746,88.567791 1836.39455,88.4084844 1836.40288,88.22525 C1836.44449,87.31525 1836.59655,86.8213611 1836.7243,86.4923611 C1836.89347,86.0568056 1837.09608,85.7456944 1837.42275,85.4190278 C1837.74942,85.0923611 1838.06054,84.8901389 1838.49609,84.7205833 C1838.82509,84.59225 1839.31918,84.4405833 1840.22918,84.3987778 C1840.42052,84.3901358 1840.58582,84.3828381 1840.74629,84.3766927 L1840.98603,84.3683148 C1841.46886,84.3531914 1842.00372,84.3475741 1843.16338,84.3462778 Z M1843.98059,87.184 C1841.33362,87.184 1839.1875,89.3300833 1839.1875,91.9770556 C1839.1875,94.6240278 1841.33362,96.7691389 1843.98059,96.7691389 C1846.62761,96.7691389 1848.77314,94.6240278 1848.77314,91.9770556 C1848.77314,89.3300833 1846.62761,87.184 1843.98059,87.184 Z M1844,88.9375 C1845.69139,88.9375 1847.0625,90.3086444 1847.0625,92 C1847.0625,93.6913944 1845.69139,95.0625 1844,95.0625 C1842.30864,95.0625 1840.9375,93.6913944 1840.9375,92 C1840.9375,90.3086444 1842.30864,88.9375 1844,88.9375 Z M1848.96273,85.8754083 C1848.74118,85.8754083 1848.52461,85.9411033 1848.34043,86.0641867 C1848.15625,86.1872739 1848.01267,86.3622156 1847.92793,86.5668722 C1847.84316,86.7715833 1847.82099,86.9967889 1847.86427,87.2140611 C1847.90752,87.4313333 1848.01423,87.6308722 1848.17087,87.7875167 C1848.32756,87.9441222 1848.52717,88.0507556 1848.74444,88.0939222 C1848.96176,88.1370889 1849.18696,88.1148833 1849.39159,88.0300278 C1849.59623,87.9452111 1849.77115,87.8015944 1849.89416,87.6173778 C1850.0172,87.4331222 1850.08281,87.21655 1850.08273,86.995 C1850.08273,86.3766822 1849.58106,85.8754083 1848.96273,85.8754083 Z" id="instagram"></path>
        </g>
    </g>
</svg>