<?xml version="1.0" encoding="UTF-8"?>
<svg width="32px" height="32px" viewBox="0 0 32 32" version="1.1" xmlns="http://www.w3.org/2000/svg" xmlns:xlink="http://www.w3.org/1999/xlink">
    <title>youtube</title>
    <g id="Design" stroke="none" stroke-width="1" fill="none" fill-rule="evenodd">
        <g id="Mobil---menu" transform="translate(-96, -703)" fill="#FFFFFF">
            <g id="youtube" transform="translate(96, 703)">
                <path d="M16,0 C24.8365333,0 32,7.16346667 32,16 C32,24.8365333 24.8365333,32 16,32 C7.16346667,32 0,24.8365333 0,16 C0,7.16346667 7.16346667,0 16,0 Z M7.55746667,8.8902 C9.25,8.45046667 15.9933333,8.45046667 15.9933333,8.45046667 C15.9933333,8.45046667 22.7500667,8.45046667 24.4424667,8.91686667 C25.3620667,9.1568 26.0949333,9.88966667 26.3348,10.8092 C26.8012,12.5016667 26.7879718,16.02 26.7879718,16.02 C26.7879718,16.02 26.7879718,19.525 26.3348,21.2042 C26.0949333,22.1370667 25.3620667,22.8566 24.4424667,23.1098 C22.7500667,23.5496 15.9933333,23.5496 15.9933333,23.5496 C15.9933333,23.5496 9.26333333,23.5496 7.55746667,23.0964667 C6.63794667,22.8432667 5.90507333,22.1104 5.65186667,21.1908667 C5.21208,19.525 5.21208,16.0066667 5.21208,16.0066667 C5.21208,16.0066667 5.21208,12.5016667 5.65186667,10.8092 C5.90507333,9.88966667 6.65127333,9.14346667 7.55746667,8.8902 Z M19.4583333,16.0066667 L13.8477333,12.7683333 L13.8477333,19.2316667 L19.4583333,16.0066667 Z" id="Shape"></path>
            </g>
        </g>
    </g>
</svg>